<svg id="eaP6HxFUiGz1" xmlns="http://www.w3.org/2000/svg" xmlns:xlink="http://www.w3.org/1999/xlink" viewBox="0 0 1000 1000" shape-rendering="geometricPrecision" text-rendering="geometricPrecision"><rect width="100" height="100" rx="0" ry="0" transform="translate(288.84096 165.185877)" fill="#fff" stroke-width="0"/><rect width="100" height="100" rx="0" ry="0" transform="translate(408.534773 285.770229)" fill="#fff" stroke-width="0"/><rect width="100" height="100" rx="0" ry="0" transform="translate(238.84096 450)" fill="#fff" stroke-width="0"/><rect width="100" height="100" rx="0" ry="0" transform="translate(474.321758 235.770229)" fill="#fff" stroke-width="0"/><rect width="100" height="100" rx="0" ry="0" transform="translate(335.692039 335.770229)" fill="#fff" stroke-width="0"/><rect width="100" height="100" rx="0" ry="0" transform="translate(458.534773 65.185877)" fill="#fff" stroke="#fff"/><rect width="100" height="100" rx="0" ry="0" transform="translate(258.534773 252.048833)" fill="#fff" stroke-width="0"/><rect width="100" height="100" rx="0" ry="0" transform="translate(552.625243 285.770229)" fill="#fff" stroke-width="0"/><rect width="100" height="100" rx="0" ry="0" transform="translate(274.321758 516.087713)" fill="#fff" stroke-width="0"/><rect width="100" height="100" rx="0" ry="0" transform="translate(606.963051 316.087713)" fill="#fff" stroke-width="0"/><rect width="100" height="100" rx="0" ry="0" transform="translate(358.534773 550)" fill="#fff" stroke-width="0"/><rect width="100" height="100" rx="0" ry="0" transform="translate(524.321758 616.087713)" fill="#fff" stroke-width="0"/><rect width="100" height="100" rx="0" ry="0" transform="translate(424.321758 616.087713)" fill="#fff" stroke-width="0"/><rect width="100" height="100" rx="0" ry="0" transform="translate(681.232609 516.087713)" fill="#fff" stroke-width="0"/><rect width="100" height="100" rx="0" ry="0" transform="translate(602.625243 550)" fill="#fff" stroke-width="0"/><rect width="100" height="100" rx="0" ry="0" transform="translate(176.567245 366.087713)" fill="#fff" stroke-width="0"/><rect width="100" height="100" rx="0" ry="0" transform="translate(756.963051 366.087713)" fill="#fff" stroke-width="0"/><rect width="100" height="100" rx="0" ry="0" transform="translate(706.963051 450)" fill="#fff" stroke-width="0"/></svg>